# xmcd
#
# Track frame offsets:
#	150
#	14687
#	33245
#	56052
#	75725
#	94305
#	115710
#	133092
#	142737
#	156297
#	177310
#	191740
#	208837
#	221527
#
# Disc length: 3180 seconds
#
# Revision: 2
# Processed by: cddbd v1.5.1PL0 Copyright (c) Steve Scherf et al.
# Submitted via: audiograbber 1.82.02
#
DISCID=c90c6a0e
DTITLE=Randy McAllister - Grease, Grit, Dirt And Spit
DYEAR=1998
DGENRE=Blues
TTITLE0=Eat, Drink and Sleep
TTITLE1=When I Start Ta Trippin'
TTITLE2=Makeshift Molly
TTITLE3=You Ain't Barbie And I Ain't Ken
TTITLE4=One Paycheck Away
TTITLE5=Your Hands On My Neck
TTITLE6=Suzie Goldigger
TTITLE7=Porkchop
TTITLE8=Bullets For Breakfast
TTITLE9=When Does The Good Stuff Happen
TTITLE10=Duct Tape And Bailing Wire
TTITLE11=Hook 'em And Gig 'em
TTITLE12=You Calm Me Down
TTITLE13=Do The Math Fool
EXTD=
EXTT0=
EXTT1=
EXTT2=
EXTT3=
EXTT4=
EXTT5=
EXTT6=
EXTT7=
EXTT8=
EXTT9=
EXTT10=
EXTT11=
EXTT12=
EXTT13=
PLAYORDER=
